<svg width="155" height="44" viewBox="0 0 155 44" fill="none" xmlns="http://www.w3.org/2000/svg">
<path d="M15.6337 0C4.50701 0 0 8.54369 0 15.6634V44C3.38026 44 5.60767 42.9404 7.74643 41.2945C10.0637 39.5112 11.8309 36.8063 11.8309 35.0291V19.5081H7.60558L15.6337 10.2524L23.9435 19.5081H19.7182V31.1782C26.3716 29.2648 31.2674 22.8325 31.2674 15.6634C31.2674 7.0914 24.268 0 15.6337 0Z" fill="#E16C00"/>
<path d="M39.157 33.9362V10.0638H48.2287C51.1686 10.0638 53.4785 10.7429 55.1585 12.1009C56.8384 13.4378 57.6784 15.3476 57.6784 17.8303C57.6784 20.313 56.8384 22.2334 55.1585 23.5915C53.4785 24.9283 51.1686 25.5968 48.2287 25.5968H44.6378V33.9362H39.157ZM44.6378 20.9178H48.2287C49.3417 20.9178 50.2446 20.6631 50.9376 20.1539C51.6516 19.6446 52.0086 18.8701 52.0086 17.8303C52.0086 16.7693 51.6516 15.9948 50.9376 15.5067C50.2446 14.9974 49.3417 14.7428 48.2287 14.7428H44.6378V20.9178Z" fill="#E16C00"/>
<path d="M65.8231 33.9362C64.3531 33.9362 63.1667 33.4906 62.2637 32.5993C61.3817 31.6869 60.9408 30.4879 60.9408 29.0026V10.0638H66.0436V28.1113C66.0436 28.5145 66.1696 28.8434 66.4216 29.098C66.6736 29.3527 66.9886 29.48 67.3666 29.48H68.343V33.9362H65.8231Z" fill="#E16C00"/>
<path d="M79.1511 34.4136C77.5552 34.4136 76.1377 33.9998 74.8988 33.1723C73.6808 32.3447 72.7253 31.1988 72.0323 29.7346C71.3394 28.2705 70.9929 26.5941 70.9929 24.7055C70.9929 22.8594 71.3289 21.2361 72.0008 19.8356C72.6728 18.4138 73.5968 17.3104 74.7728 16.5253C75.9487 15.7189 77.3032 15.3157 78.8361 15.3157C80.0121 15.3157 81.0516 15.5492 81.9545 16.016C82.8785 16.4616 83.624 17.0876 84.191 17.894L84.4745 15.7932H88.6953V33.9362H84.4745L84.191 31.5489C83.645 32.4402 82.931 33.1404 82.049 33.6497C81.1671 34.159 80.2011 34.4136 79.1511 34.4136ZM80.0646 29.8938C81.2406 29.8938 82.175 29.427 82.868 28.4933C83.561 27.5596 83.9075 26.297 83.9075 24.7055C83.9075 23.114 83.561 21.8621 82.868 20.9496C82.175 20.0159 81.2406 19.5491 80.0646 19.5491C78.8676 19.5491 77.9227 20.0159 77.2297 20.9496C76.5367 21.8621 76.1902 23.114 76.1902 24.7055C76.1902 26.297 76.5367 27.5596 77.2297 28.4933C77.9227 29.427 78.8676 29.8938 80.0646 29.8938Z" fill="#E16C00"/>
<path d="M92.5572 33.9362V23.2732C92.5572 21.6393 92.8826 20.2281 93.5336 19.0398C94.2056 17.8515 95.1506 16.9391 96.3685 16.3025C97.5865 15.6447 99.0249 15.3157 100.684 15.3157C102.343 15.3157 103.781 15.6447 104.999 16.3025C106.217 16.9391 107.152 17.8515 107.803 19.0398C108.475 20.2281 108.811 21.6393 108.811 23.2732V33.9362H103.708V23.3369C103.708 22.191 103.424 21.3104 102.857 20.695C102.311 20.0796 101.587 19.7719 100.684 19.7719C99.8019 19.7719 99.0774 20.0796 98.5105 20.695C97.9435 21.3104 97.66 22.191 97.66 23.3369V33.9362H92.5572Z" fill="#E16C00"/>
<path d="M122.654 34.4136C120.638 34.4136 118.864 34.021 117.331 33.2359C115.819 32.4296 114.632 31.3049 113.771 29.862C112.932 28.3978 112.512 26.679 112.512 24.7055V10.0638H118.055V24.7055C118.055 26.2121 118.465 27.4111 119.284 28.3023C120.103 29.1935 121.205 29.6391 122.591 29.6391C124.019 29.6391 125.143 29.1935 125.962 28.3023C126.781 27.4111 127.19 26.2121 127.19 24.7055V10.0638H132.734V24.7055C132.734 26.679 132.303 28.3978 131.442 29.862C130.602 31.3049 129.426 32.4296 127.915 33.2359C126.403 34.021 124.649 34.4136 122.654 34.4136Z" fill="#E16C00"/>
<path d="M136.825 39.6655V15.7932H141.14L141.55 18.4669C142.159 17.4483 142.957 16.6738 143.944 16.1433C144.931 15.5916 145.991 15.3157 147.125 15.3157C148.721 15.3157 150.107 15.7189 151.283 16.5253C152.459 17.3316 153.373 18.4457 154.024 19.8674C154.675 21.2891 155 22.9337 155 24.801C155 26.5198 154.759 27.984 154.276 29.1935C153.793 30.4031 153.152 31.4004 152.354 32.1855C151.556 32.9494 150.674 33.5118 149.708 33.8725C148.742 34.2332 147.787 34.4136 146.842 34.4136C145.855 34.4136 144.931 34.2226 144.07 33.8407C143.23 33.4587 142.516 32.8964 141.928 32.1537V39.6655H136.825ZM145.771 30.1803C147.01 30.1803 147.986 29.724 148.7 28.8116C149.435 27.8779 149.803 26.6153 149.803 25.0238C149.803 23.4323 149.435 22.1698 148.7 21.2361C147.986 20.3024 147.01 19.8356 145.771 19.8356C144.595 19.8356 143.66 20.3024 142.967 21.2361C142.274 22.1698 141.928 23.4323 141.928 25.0238C141.928 26.6153 142.274 27.8779 142.967 28.8116C143.66 29.724 144.595 30.1803 145.771 30.1803Z" fill="#E16C00"/>
</svg>
